<svg xmlns="http://www.w3.org/2000/svg" xmlns:xlink="http://www.w3.org/1999/xlink" preserveAspectRatio="xMidYMid" width="20" height="24" viewBox="0 0 20 24">
  <defs>
    <style>
      .cls-1 {
        fill: #00abf8;
        fill-rule: evenodd;
      }
    </style>
  </defs>
  <path d="M19.904,20.747 C19.815,20.903 19.649,21.000 19.469,21.000 L0.498,21.000 C0.319,21.000 0.154,20.903 0.065,20.746 C-0.024,20.589 -0.022,20.397 0.071,20.242 L1.785,17.380 C2.576,16.059 2.995,14.547 2.995,13.007 L2.995,10.500 C2.995,7.335 5.103,4.658 7.987,3.795 L7.987,2.000 C7.987,0.897 8.882,0.000 9.984,0.000 C11.085,0.000 11.981,0.897 11.981,2.000 L11.981,3.795 C14.864,4.658 16.973,7.335 16.973,10.500 L16.973,13.007 C16.973,14.547 17.392,16.060 18.183,17.381 L19.898,20.243 C19.989,20.397 19.992,20.591 19.904,20.747 ZM9.984,24.000 C8.595,24.000 7.403,23.178 6.840,22.000 L13.128,22.000 C12.565,23.178 11.373,24.000 9.984,24.000 Z" class="cls-1"/>
</svg>
