<svg xmlns="http://www.w3.org/2000/svg" xmlns:xlink="http://www.w3.org/1999/xlink" preserveAspectRatio="xMidYMid" width="24" height="24" viewBox="0 0 24 24">
  <defs>
    <style>
      .cls-1 {
        fill: #000;
        fill-rule: evenodd;
      }
    </style>
  </defs>
  <path d="M19.833,19.578 C19.188,19.026 18.448,18.537 17.616,18.139 C17.631,18.094 17.646,18.049 17.661,18.004 C17.923,17.175 18.133,16.285 18.282,15.346 C18.300,15.227 18.315,15.107 18.332,14.987 C18.382,14.630 18.423,14.266 18.455,13.897 C18.467,13.759 18.480,13.623 18.489,13.483 C18.510,13.176 18.515,12.859 18.524,12.546 L22.885,12.546 C22.750,15.275 21.610,17.736 19.833,19.578 ZM15.238,22.421 C15.473,22.176 15.697,21.901 15.912,21.605 C15.932,21.577 15.953,21.550 15.972,21.522 C16.405,20.915 16.795,20.215 17.133,19.432 C17.151,19.390 17.167,19.345 17.185,19.303 C17.205,19.256 17.221,19.204 17.240,19.156 C17.914,19.484 18.516,19.879 19.045,20.318 C17.942,21.255 16.655,21.981 15.238,22.421 ZM12.546,22.856 L12.546,18.024 C13.887,18.080 15.154,18.327 16.281,18.744 C15.389,21.011 14.060,22.555 12.546,22.856 ZM12.546,12.546 L17.441,12.546 C17.394,14.439 17.102,16.201 16.634,17.721 C15.395,17.260 14.009,16.991 12.546,16.934 L12.546,12.546 ZM12.546,7.067 C14.009,7.009 15.395,6.740 16.634,6.280 C17.102,7.799 17.394,9.561 17.441,11.455 L12.546,11.455 L12.546,7.067 ZM12.546,1.145 C14.060,1.446 15.389,2.989 16.281,5.256 C15.154,5.673 13.887,5.921 12.546,5.976 L12.546,1.145 ZM19.045,3.682 C18.516,4.122 17.914,4.516 17.240,4.844 C17.221,4.796 17.205,4.745 17.185,4.698 C17.167,4.655 17.151,4.611 17.133,4.569 C16.795,3.785 16.405,3.085 15.972,2.478 C15.953,2.450 15.932,2.423 15.912,2.395 C15.697,2.099 15.473,1.825 15.238,1.579 C16.654,2.019 17.942,2.744 19.045,3.682 ZM22.885,11.455 L18.524,11.455 C18.515,11.141 18.510,10.825 18.489,10.517 C18.480,10.377 18.467,10.241 18.455,10.104 C18.423,9.734 18.382,9.371 18.332,9.014 C18.315,8.894 18.300,8.773 18.282,8.655 C18.133,7.715 17.923,6.826 17.661,5.996 C17.646,5.951 17.631,5.907 17.616,5.862 C18.448,5.464 19.188,4.974 19.833,4.423 C21.610,6.264 22.750,8.725 22.885,11.455 ZM11.455,5.976 C10.114,5.921 8.847,5.673 7.720,5.256 C8.611,2.989 9.940,1.446 11.455,1.145 L11.455,5.976 ZM11.455,11.455 L6.560,11.455 C6.607,9.561 6.899,7.799 7.367,6.280 C8.606,6.740 9.992,7.009 11.455,7.067 L11.455,11.455 ZM11.455,16.934 C9.992,16.991 8.606,17.260 7.367,17.721 C6.899,16.201 6.607,14.439 6.560,12.546 L11.455,12.546 L11.455,16.934 ZM11.455,22.856 C9.940,22.555 8.611,21.011 7.720,18.744 C8.847,18.327 10.114,18.080 11.455,18.024 L11.455,22.856 ZM4.956,20.318 C5.485,19.879 6.087,19.484 6.761,19.156 C6.780,19.204 6.796,19.256 6.815,19.303 C6.834,19.345 6.850,19.390 6.868,19.432 C7.206,20.215 7.596,20.915 8.028,21.522 C8.048,21.550 8.069,21.577 8.089,21.605 C8.304,21.901 8.528,22.176 8.763,22.421 C7.346,21.981 6.059,21.255 4.956,20.318 ZM1.116,12.546 L5.477,12.546 C5.486,12.859 5.491,13.176 5.512,13.483 C5.521,13.623 5.534,13.759 5.546,13.897 C5.578,14.266 5.619,14.630 5.669,14.987 C5.686,15.107 5.701,15.227 5.719,15.346 C5.868,16.285 6.078,17.175 6.340,18.004 C6.355,18.049 6.370,18.094 6.385,18.139 C5.553,18.537 4.813,19.026 4.168,19.578 C2.391,17.736 1.251,15.275 1.116,12.546 ZM4.168,4.423 C4.813,4.974 5.553,5.464 6.385,5.862 C6.370,5.907 6.355,5.951 6.340,5.996 C6.078,6.826 5.868,7.715 5.719,8.655 C5.701,8.773 5.686,8.894 5.669,9.014 C5.619,9.371 5.578,9.734 5.546,10.104 C5.534,10.241 5.521,10.377 5.512,10.517 C5.491,10.825 5.486,11.141 5.477,11.455 L1.116,11.455 C1.251,8.725 2.391,6.264 4.168,4.423 ZM8.763,1.579 C8.528,1.825 8.305,2.099 8.089,2.395 C8.069,2.423 8.049,2.450 8.028,2.478 C7.596,3.085 7.206,3.785 6.868,4.569 C6.850,4.611 6.834,4.655 6.815,4.698 C6.796,4.745 6.780,4.796 6.761,4.844 C6.087,4.516 5.485,4.122 4.956,3.682 C6.059,2.744 7.346,2.019 8.763,1.579 ZM12.000,-0.001 C5.375,-0.001 0.003,5.372 0.003,12.000 C0.003,18.628 5.375,24.002 12.000,24.002 C18.626,24.002 23.998,18.628 23.998,12.000 C23.998,5.372 18.626,-0.001 12.000,-0.001 Z" class="cls-1"/>
</svg>
