<svg xmlns="http://www.w3.org/2000/svg" xmlns:xlink="http://www.w3.org/1999/xlink" preserveAspectRatio="xMidYMid" width="26" height="21" viewBox="0 0 26 21">
  <defs>
    <style>
      .cls-1 {
        fill: #000;
        fill-rule: evenodd;
      }
    </style>
  </defs>
  <path d="M25.347,11.137 L8.613,11.137 C8.253,11.137 7.961,10.851 7.961,10.498 C7.961,10.146 8.253,9.860 8.613,9.860 L25.347,9.860 C25.707,9.860 25.999,10.146 25.999,10.498 C25.999,10.851 25.707,11.137 25.347,11.137 ZM25.347,2.407 L8.613,2.407 C8.253,2.407 7.961,2.122 7.961,1.769 C7.961,1.416 8.253,1.131 8.613,1.131 L25.347,1.131 C25.707,1.131 25.999,1.416 25.999,1.769 C25.999,2.122 25.707,2.407 25.347,2.407 ZM2.959,20.997 L0.653,20.997 C0.293,20.997 0.001,20.711 0.001,20.359 L0.001,18.099 C0.001,17.746 0.293,17.461 0.653,17.461 L2.959,17.461 C3.319,17.461 3.611,17.746 3.611,18.099 L3.611,20.359 C3.611,20.711 3.319,20.997 2.959,20.997 ZM2.959,12.267 L0.653,12.267 C0.293,12.267 0.001,11.981 0.001,11.629 L0.001,9.369 C0.001,9.016 0.293,8.731 0.653,8.731 L2.959,8.731 C3.319,8.731 3.611,9.016 3.611,9.369 L3.611,11.629 C3.611,11.981 3.319,12.267 2.959,12.267 ZM2.959,3.536 L0.653,3.536 C0.293,3.536 0.001,3.251 0.001,2.898 L0.001,0.639 C0.001,0.286 0.293,0.000 0.653,0.000 L2.959,0.000 C3.319,0.000 3.611,0.286 3.611,0.639 L3.611,2.898 C3.611,3.251 3.319,3.536 2.959,3.536 ZM8.613,18.591 L25.347,18.591 C25.707,18.591 25.999,18.877 25.999,19.229 C25.999,19.582 25.707,19.867 25.347,19.867 L8.613,19.867 C8.253,19.867 7.961,19.582 7.961,19.229 C7.961,18.877 8.253,18.591 8.613,18.591 Z" class="cls-1"/>
</svg>
