<svg xmlns="http://www.w3.org/2000/svg" xmlns:xlink="http://www.w3.org/1999/xlink" preserveAspectRatio="xMidYMid" width="25" height="24" viewBox="0 0 25 24">
  <defs>
    <style>
      .cls-1 {
        fill: #00abf8;
        fill-rule: evenodd;
      }
    </style>
  </defs>
  <path d="M24.885,23.826 C24.790,23.936 24.650,24.000 24.503,24.000 L0.497,24.000 C0.349,24.000 0.209,23.936 0.115,23.826 C0.020,23.716 -0.019,23.571 0.007,23.430 L0.489,20.849 C0.759,19.402 1.467,18.088 2.537,17.051 C3.594,16.025 4.927,15.341 6.391,15.073 C6.842,14.991 7.304,14.949 7.763,14.949 L9.213,14.949 C9.345,14.949 9.472,15.000 9.565,15.091 L12.500,17.941 L15.435,15.091 C15.528,15.000 15.655,14.949 15.787,14.949 L17.237,14.949 C17.696,14.949 18.158,14.991 18.609,15.073 C20.073,15.341 21.406,16.025 22.463,17.051 C23.533,18.089 24.242,19.402 24.511,20.849 L24.993,23.430 C25.019,23.571 24.980,23.716 24.885,23.826 ZM9.007,15.916 L7.763,15.916 C7.698,15.916 7.634,15.917 7.569,15.919 L11.075,19.324 L11.796,18.625 L9.007,15.916 ZM17.237,15.916 L15.993,15.916 L12.852,18.967 L11.780,20.009 L12.500,20.708 L17.431,15.919 C17.366,15.917 17.302,15.916 17.237,15.916 ZM23.531,21.021 C23.077,18.588 21.143,16.630 18.678,16.076 L12.852,21.734 C12.840,21.746 12.828,21.757 12.814,21.767 C12.632,21.912 12.368,21.912 12.186,21.767 C12.173,21.757 12.160,21.746 12.148,21.734 L6.322,16.076 C3.857,16.630 1.923,18.588 1.469,21.021 L1.094,23.033 L23.907,23.033 L23.531,21.021 ZM7.719,13.838 L7.719,14.032 C7.719,14.299 7.496,14.515 7.221,14.515 C6.946,14.515 6.723,14.299 6.723,14.032 L6.723,13.838 C6.723,13.571 6.946,13.354 7.221,13.354 C7.496,13.354 7.719,13.571 7.719,13.838 ZM18.973,9.441 C18.966,9.521 18.795,11.395 17.356,12.143 C17.064,12.294 16.746,12.386 16.403,12.420 C15.992,13.021 15.433,13.528 14.756,13.889 C14.050,14.266 13.275,14.455 12.500,14.455 C11.725,14.455 10.950,14.266 10.244,13.889 C8.912,13.178 8.033,11.906 7.853,10.452 L7.719,10.452 L7.719,12.387 C7.719,12.654 7.496,12.871 7.221,12.871 C6.946,12.871 6.723,12.654 6.723,12.387 L6.723,10.387 C6.316,10.246 6.017,9.887 5.977,9.443 L5.788,7.297 C5.761,6.990 5.868,6.683 6.083,6.456 C6.297,6.229 6.602,6.099 6.920,6.099 L7.553,6.099 L7.526,5.707 L7.397,3.783 C7.331,2.792 7.679,1.848 8.378,1.123 C9.076,0.399 10.024,0.000 11.046,0.000 L13.954,0.000 C14.976,0.000 15.924,0.399 16.622,1.123 C17.321,1.848 17.669,2.792 17.603,3.783 L17.517,5.066 L17.447,6.099 L18.031,6.099 C18.348,6.099 18.653,6.229 18.867,6.456 C19.082,6.683 19.190,6.990 19.162,7.297 L18.973,9.441 L18.973,9.441 ZM7.618,7.066 L6.920,7.066 C6.869,7.066 6.836,7.090 6.817,7.110 C6.798,7.130 6.776,7.165 6.780,7.214 L6.970,9.361 C6.976,9.431 7.036,9.485 7.109,9.485 L7.780,9.485 L7.618,7.066 ZM8.822,10.138 C8.904,11.364 9.616,12.449 10.724,13.041 C11.836,13.636 13.164,13.636 14.276,13.041 C14.633,12.851 14.948,12.609 15.214,12.328 C14.764,12.224 14.283,12.044 13.772,11.788 C13.588,11.892 13.375,11.952 13.147,11.952 C12.461,11.952 11.902,11.409 11.902,10.742 C11.902,10.076 12.461,9.533 13.147,9.533 C13.834,9.533 14.393,10.076 14.393,10.742 C14.393,10.829 14.383,10.914 14.365,10.996 C14.910,11.256 15.397,11.409 15.824,11.455 C16.024,11.049 16.147,10.604 16.178,10.138 L16.495,5.411 C15.574,5.193 14.905,4.981 14.503,4.779 C14.131,4.593 13.843,4.386 13.642,4.162 C12.888,4.877 11.358,5.872 8.553,6.122 L8.822,10.138 ZM13.397,10.742 C13.397,10.609 13.285,10.500 13.147,10.500 C13.010,10.500 12.898,10.609 12.898,10.742 C12.898,10.876 13.010,10.984 13.147,10.984 C13.285,10.984 13.397,10.876 13.397,10.742 ZM13.954,0.967 L11.046,0.967 C10.303,0.967 9.613,1.258 9.105,1.785 C8.596,2.312 8.343,2.999 8.391,3.720 L8.488,5.157 C12.118,4.827 13.250,3.174 13.374,2.973 L14.146,0.975 C14.082,0.970 14.019,0.967 13.954,0.967 ZM15.895,1.785 C15.667,1.548 15.403,1.360 15.113,1.224 L14.293,3.348 C14.293,3.349 14.293,3.349 14.292,3.350 C14.292,3.351 14.292,3.352 14.291,3.353 C14.295,3.422 14.417,3.648 14.960,3.920 C15.183,4.032 15.638,4.205 16.561,4.430 L16.609,3.719 C16.657,2.999 16.404,2.312 15.895,1.785 ZM16.977,11.237 C17.291,11.045 17.508,10.751 17.658,10.452 L17.147,10.452 C17.114,10.721 17.057,10.983 16.977,11.237 ZM18.134,7.110 C18.115,7.090 18.081,7.066 18.031,7.066 L17.382,7.066 L17.220,9.485 L17.841,9.485 C17.914,9.485 17.974,9.431 17.981,9.361 L18.170,7.214 C18.174,7.165 18.153,7.130 18.134,7.110 Z" class="cls-1"/>
</svg>
