<svg xmlns="http://www.w3.org/2000/svg" xmlns:xlink="http://www.w3.org/1999/xlink" preserveAspectRatio="xMidYMid" width="25" height="21" viewBox="0 0 25 21">
  <defs>
    <style>
      .cls-1 {
        fill: #00abf8;
        fill-rule: evenodd;
      }
    </style>
  </defs>
  <path d="M17.045,19.829 L14.773,19.829 L14.773,10.496 L17.045,10.496 L17.045,19.829 ZM17.613,9.329 L14.205,9.329 C13.891,9.329 13.636,9.590 13.636,9.912 L13.636,20.412 C13.636,20.735 13.891,20.996 14.205,20.996 L17.613,20.996 C17.927,20.996 18.181,20.735 18.181,20.412 L18.181,9.912 C18.181,9.590 17.927,9.329 17.613,9.329 ZM23.861,19.829 L21.589,19.829 L21.589,1.162 L23.861,1.162 L23.861,19.829 ZM24.430,-0.004 L21.021,-0.004 C20.708,-0.004 20.453,0.257 20.453,0.579 L20.453,20.412 C20.453,20.735 20.708,20.996 21.021,20.996 L24.430,20.996 C24.743,20.996 24.998,20.735 24.998,20.412 L24.998,0.579 C24.998,0.257 24.743,-0.004 24.430,-0.004 ZM10.228,19.829 L7.956,19.829 L7.956,3.496 L10.228,3.496 L10.228,19.829 ZM10.796,2.329 L7.388,2.329 C7.074,2.329 6.820,2.591 6.820,2.912 L6.820,20.412 C6.820,20.735 7.074,20.996 7.388,20.996 L10.796,20.996 C11.110,20.996 11.364,20.735 11.364,20.412 L11.364,2.912 C11.364,2.591 11.110,2.329 10.796,2.329 ZM3.412,19.829 L1.139,19.829 L1.139,13.996 L3.412,13.996 L3.412,19.829 ZM3.980,12.829 L0.571,12.829 C0.258,12.829 0.003,13.091 0.003,13.412 L0.003,20.412 C0.003,20.735 0.258,20.996 0.571,20.996 L3.980,20.996 C4.293,20.996 4.548,20.735 4.548,20.412 L4.548,13.412 C4.548,13.091 4.293,12.829 3.980,12.829 Z" class="cls-1"/>
</svg>
