<svg xmlns="http://www.w3.org/2000/svg" xmlns:xlink="http://www.w3.org/1999/xlink" preserveAspectRatio="xMidYMid" width="27" height="24" viewBox="0 0 27 24">
  <defs>
    <style>
      .cls-1 {
        fill: #00abf8;
        fill-rule: evenodd;
      }
    </style>
  </defs>
  <path d="M25.828,10.259 L25.647,10.291 C25.804,10.784 25.883,11.310 25.883,11.863 L26.222,15.765 L26.223,19.607 C26.223,19.608 26.224,19.611 26.224,19.611 L26.223,19.615 L26.224,22.215 C26.224,23.198 25.436,23.999 24.468,23.999 L22.627,23.999 C21.659,23.999 20.871,23.198 20.871,22.215 L20.871,20.170 L6.150,20.170 L6.150,22.215 C6.150,23.198 5.362,23.999 4.394,23.999 L2.553,23.999 C1.585,23.999 0.798,23.198 0.798,22.215 L0.798,15.813 L1.140,11.814 C1.139,11.296 1.217,10.782 1.373,10.294 L1.171,10.259 C0.520,10.231 -0.001,9.683 -0.001,9.014 L-0.001,8.419 C-0.001,7.732 0.549,7.173 1.225,7.173 L3.651,7.173 C3.756,7.173 3.848,7.211 3.931,7.263 L4.967,3.073 C5.243,1.560 6.325,0.001 8.108,0.001 L18.913,0.001 C20.706,0.001 21.786,1.562 22.062,3.109 L23.087,7.250 C23.165,7.205 23.252,7.173 23.348,7.173 L25.775,7.173 C26.451,7.173 27.000,7.732 27.000,8.419 L27.000,9.014 C27.000,9.683 26.479,10.231 25.828,10.259 ZM21.972,22.215 C21.972,22.582 22.266,22.881 22.627,22.881 L24.468,22.881 C24.829,22.881 25.123,22.582 25.123,22.215 L25.123,20.170 L21.972,20.170 L21.972,22.215 ZM1.898,22.215 C1.898,22.582 2.192,22.881 2.553,22.881 L4.394,22.881 C4.755,22.881 5.049,22.582 5.049,22.215 L5.049,20.170 L1.897,20.170 L1.898,22.215 ZM20.987,3.345 C20.799,2.298 20.150,1.119 18.913,1.119 L8.108,1.119 C6.958,1.119 6.241,2.219 6.042,3.311 L4.863,8.082 C4.909,9.228 6.180,10.107 7.276,10.107 L19.745,10.107 C20.841,10.107 22.112,9.228 22.158,8.082 L20.987,3.345 ZM25.900,8.419 C25.900,8.349 25.844,8.291 25.775,8.291 L23.348,8.291 C23.311,8.291 23.279,8.277 23.244,8.270 C23.084,9.977 21.327,11.225 19.745,11.225 L7.276,11.225 C5.693,11.225 3.935,9.975 3.777,8.265 C3.735,8.276 3.696,8.291 3.651,8.291 L1.225,8.291 C1.155,8.291 1.099,8.349 1.099,8.419 L1.099,9.014 C1.100,9.116 1.219,9.133 1.317,9.150 L2.236,9.310 C2.408,9.339 2.556,9.451 2.635,9.610 C2.713,9.769 2.713,9.956 2.633,10.115 C2.367,10.643 2.238,11.215 2.238,11.863 L1.896,15.862 L1.897,19.052 L25.123,19.052 L25.123,15.813 L24.785,11.912 C24.783,11.213 24.653,10.640 24.387,10.112 C24.307,9.954 24.306,9.767 24.384,9.607 C24.463,9.448 24.611,9.336 24.784,9.306 L25.682,9.150 C25.781,9.133 25.900,9.117 25.900,9.014 L25.900,8.419 ZM20.563,17.917 C19.253,17.917 18.187,16.834 18.187,15.503 C18.187,14.172 19.253,13.089 20.563,13.089 C21.873,13.089 22.939,14.172 22.939,15.503 C22.939,16.834 21.873,17.917 20.563,17.917 ZM20.563,14.207 C19.860,14.207 19.287,14.788 19.287,15.503 C19.287,16.218 19.860,16.799 20.563,16.799 C21.267,16.799 21.839,16.218 21.839,15.503 C21.839,14.788 21.267,14.207 20.563,14.207 ZM16.509,17.340 L10.512,17.340 C10.208,17.340 9.962,17.090 9.962,16.781 C9.962,16.472 10.208,16.222 10.512,16.222 L16.509,16.222 C16.813,16.222 17.059,16.472 17.059,16.781 C17.059,17.090 16.813,17.340 16.509,17.340 ZM16.509,14.938 L10.512,14.938 C10.208,14.938 9.962,14.688 9.962,14.379 C9.962,14.070 10.208,13.819 10.512,13.819 L16.509,13.819 C16.813,13.819 17.059,14.070 17.059,14.379 C17.059,14.688 16.813,14.938 16.509,14.938 ZM6.458,17.917 C5.148,17.917 4.082,16.834 4.082,15.503 C4.082,14.172 5.148,13.089 6.458,13.089 C7.768,13.089 8.834,14.172 8.834,15.503 C8.834,16.834 7.768,17.917 6.458,17.917 ZM6.458,14.207 C5.755,14.207 5.182,14.788 5.182,15.503 C5.182,16.218 5.755,16.799 6.458,16.799 C7.161,16.799 7.734,16.218 7.734,15.503 C7.734,14.788 7.161,14.207 6.458,14.207 ZM15.002,3.664 L12.026,3.664 C11.723,3.664 11.476,3.414 11.476,3.105 C11.476,2.796 11.723,2.546 12.026,2.546 L15.002,2.546 C15.305,2.546 15.552,2.796 15.552,3.105 C15.552,3.414 15.305,3.664 15.002,3.664 Z" class="cls-1"/>
</svg>
