<svg xmlns="http://www.w3.org/2000/svg" xmlns:xlink="http://www.w3.org/1999/xlink" preserveAspectRatio="xMidYMid" width="25" height="25" viewBox="0 0 25 25">
  <defs>
    <style>
      .cls-1 {
        fill: #00abf8;
        fill-rule: evenodd;
      }
    </style>
  </defs>
  <path d="M12.500,17.046 C9.991,17.046 7.956,15.011 7.956,12.500 C7.956,9.990 9.991,7.954 12.500,7.954 C15.010,7.954 17.045,9.990 17.045,12.500 C17.045,15.011 15.010,17.046 12.500,17.046 ZM12.500,6.818 C9.363,6.818 6.820,9.362 6.820,12.500 C6.820,15.639 9.363,18.183 12.500,18.183 C15.638,18.183 18.181,15.639 18.181,12.500 C18.181,9.362 15.638,6.818 12.500,6.818 ZM23.861,13.903 C23.857,13.905 23.853,13.907 23.849,13.908 L22.686,14.199 C22.285,14.299 21.971,14.609 21.864,15.007 C21.645,15.825 21.319,16.611 20.893,17.345 C20.685,17.703 20.688,18.145 20.901,18.501 L21.527,19.543 L19.542,21.529 C19.538,21.527 19.534,21.525 19.530,21.523 L18.492,20.901 C18.312,20.792 18.110,20.739 17.908,20.739 C17.712,20.739 17.516,20.789 17.340,20.891 C16.606,21.315 15.822,21.640 15.010,21.857 C14.611,21.964 14.300,22.278 14.201,22.680 L13.908,23.852 C13.906,23.857 13.905,23.861 13.903,23.866 L11.096,23.866 L10.800,22.679 C10.700,22.278 10.390,21.964 9.991,21.857 C9.179,21.640 8.395,21.315 7.660,20.891 C7.484,20.789 7.289,20.739 7.093,20.739 C6.890,20.739 6.688,20.792 6.508,20.901 L5.471,21.523 C5.467,21.525 5.463,21.527 5.459,21.529 L3.474,19.543 L4.099,18.500 C4.312,18.145 4.316,17.703 4.108,17.345 C3.682,16.610 3.355,15.824 3.136,15.007 C3.030,14.609 2.715,14.299 2.315,14.199 L1.153,13.908 C1.148,13.907 1.144,13.905 1.139,13.903 L1.139,11.096 L2.315,10.802 C2.715,10.702 3.030,10.392 3.136,9.993 C3.355,9.176 3.682,8.390 4.108,7.655 C4.316,7.297 4.312,6.855 4.099,6.500 L3.481,5.468 C3.479,5.464 3.477,5.460 3.475,5.456 L5.460,3.471 L6.508,4.100 C6.688,4.208 6.890,4.262 7.093,4.262 C7.289,4.262 7.484,4.211 7.661,4.110 C8.394,3.686 9.179,3.360 9.991,3.143 C10.390,3.036 10.700,2.722 10.800,2.321 L11.096,1.135 L13.903,1.135 C13.905,1.140 13.906,1.143 13.908,1.148 L14.201,2.321 C14.300,2.722 14.611,3.036 15.010,3.143 C15.822,3.360 16.606,3.686 17.340,4.110 C17.516,4.211 17.712,4.262 17.908,4.262 C18.110,4.262 18.312,4.208 18.492,4.100 L19.541,3.471 L21.526,5.456 C21.524,5.460 21.522,5.464 21.520,5.469 L20.901,6.500 C20.688,6.855 20.685,7.297 20.893,7.655 C21.319,8.389 21.645,9.176 21.864,9.993 C21.971,10.392 22.285,10.702 22.686,10.802 L23.861,11.096 L23.861,13.903 ZM24.164,10.000 L22.962,9.699 C22.714,8.773 22.346,7.895 21.876,7.084 L22.516,6.018 C22.712,5.637 22.841,5.164 22.516,4.839 L20.159,2.482 C20.013,2.335 19.832,2.277 19.645,2.277 C19.417,2.277 19.179,2.364 18.981,2.482 L17.908,3.126 C17.100,2.658 16.226,2.293 15.303,2.045 L15.000,0.832 C14.870,0.424 14.627,-0.001 14.167,-0.001 L10.834,-0.001 C10.374,-0.001 10.105,0.424 10.001,0.832 L9.698,2.045 C8.775,2.293 7.901,2.658 7.093,3.126 L6.020,2.482 C5.821,2.364 5.583,2.277 5.355,2.277 C5.168,2.277 4.988,2.335 4.842,2.482 L2.485,4.839 C2.160,5.164 2.289,5.637 2.485,6.018 L3.125,7.084 C2.655,7.895 2.287,8.773 2.039,9.699 L0.837,10.000 C0.428,10.104 0.003,10.373 0.003,10.834 L0.003,14.167 C0.003,14.628 0.428,14.870 0.837,15.001 L2.039,15.301 C2.287,16.228 2.655,17.105 3.125,17.916 L2.485,18.983 C2.270,19.345 2.160,19.836 2.485,20.161 L4.842,22.519 C4.985,22.662 5.157,22.717 5.338,22.717 C5.566,22.717 5.807,22.629 6.020,22.519 L7.093,21.875 C7.901,22.342 8.775,22.708 9.698,22.955 L10.001,24.168 C10.105,24.576 10.374,25.002 10.834,25.002 L14.167,25.002 C14.627,25.002 14.870,24.576 15.000,24.168 L15.303,22.955 C16.226,22.708 17.100,22.342 17.908,21.875 L18.981,22.519 C19.194,22.629 19.435,22.717 19.663,22.717 C19.844,22.717 20.016,22.662 20.159,22.519 L22.516,20.161 C22.841,19.836 22.730,19.345 22.516,18.983 L21.876,17.916 C22.346,17.105 22.714,16.228 22.962,15.301 L24.164,15.001 C24.573,14.870 24.998,14.628 24.998,14.167 L24.998,10.834 C24.998,10.373 24.573,10.104 24.164,10.000 Z" class="cls-1"/>
</svg>
