<svg xmlns="http://www.w3.org/2000/svg" xmlns:xlink="http://www.w3.org/1999/xlink" preserveAspectRatio="xMidYMid" width="25" height="25" viewBox="0 0 25 25">
  <defs>
    <style>
      .cls-1 {
        fill: #00abf8;
        fill-rule: evenodd;
      }
    </style>
  </defs>
  <path d="M20.164,16.270 C19.892,16.113 19.545,16.206 19.388,16.478 C19.231,16.750 19.324,17.097 19.596,17.254 C19.867,17.411 20.215,17.318 20.372,17.046 C20.528,16.774 20.435,16.427 20.164,16.270 ZM12.500,13.637 C11.873,13.637 11.364,13.128 11.364,12.500 C11.364,11.873 11.873,11.364 12.500,11.364 C13.128,11.364 13.636,11.873 13.636,12.500 C13.636,13.128 13.128,13.637 12.500,13.637 ZM17.613,11.932 L14.692,11.932 C14.485,11.138 13.864,10.513 13.069,10.308 L13.069,3.976 C13.069,3.663 12.814,3.408 12.500,3.408 C12.187,3.408 11.932,3.663 11.932,3.976 L11.932,10.308 C10.954,10.561 10.228,11.442 10.228,12.500 C10.228,13.756 11.246,14.773 12.500,14.773 C13.558,14.773 14.439,14.047 14.692,13.068 L17.613,13.068 C17.927,13.068 18.181,12.814 18.181,12.500 C18.181,12.187 17.927,11.932 17.613,11.932 ZM12.500,23.865 C6.226,23.865 1.139,18.777 1.139,12.500 C1.139,6.223 6.226,1.135 12.500,1.135 C18.775,1.135 23.861,6.223 23.861,12.500 C23.861,18.777 18.775,23.865 12.500,23.865 ZM12.500,-0.001 C5.598,-0.001 0.003,5.596 0.003,12.500 C0.003,19.405 5.598,25.001 12.500,25.001 C19.402,25.001 24.998,19.405 24.998,12.500 C24.998,5.596 19.402,-0.001 12.500,-0.001 ZM19.596,7.746 C19.324,7.904 19.231,8.251 19.388,8.522 C19.545,8.794 19.892,8.887 20.164,8.730 C20.435,8.574 20.528,8.226 20.372,7.954 C20.215,7.683 19.867,7.589 19.596,7.746 ZM16.477,19.390 C16.205,19.546 16.112,19.895 16.269,20.166 C16.426,20.438 16.773,20.531 17.045,20.374 C17.317,20.217 17.410,19.870 17.253,19.598 C17.096,19.326 16.749,19.233 16.477,19.390 ZM21.021,11.932 C20.708,11.932 20.453,12.187 20.453,12.500 C20.453,12.814 20.708,13.068 21.021,13.068 C21.335,13.068 21.589,12.814 21.589,12.500 C21.589,12.187 21.335,11.932 21.021,11.932 ZM8.524,19.390 C8.253,19.233 7.905,19.326 7.748,19.598 C7.591,19.870 7.684,20.217 7.956,20.374 C8.228,20.531 8.575,20.438 8.732,20.166 C8.889,19.895 8.796,19.546 8.524,19.390 ZM4.837,16.270 C4.565,16.427 4.473,16.774 4.629,17.046 C4.786,17.318 5.134,17.411 5.405,17.254 C5.677,17.097 5.770,16.750 5.613,16.478 C5.456,16.206 5.109,16.113 4.837,16.270 ZM5.405,7.746 C5.134,7.589 4.786,7.683 4.629,7.954 C4.473,8.226 4.565,8.574 4.837,8.730 C5.109,8.887 5.456,8.794 5.613,8.522 C5.770,8.251 5.677,7.904 5.405,7.746 ZM3.980,11.932 C3.666,11.932 3.412,12.187 3.412,12.500 C3.412,12.814 3.666,13.068 3.980,13.068 C4.293,13.068 4.548,12.814 4.548,12.500 C4.548,12.187 4.293,11.932 3.980,11.932 ZM12.500,20.456 C12.187,20.456 11.932,20.710 11.932,21.024 C11.932,21.338 12.187,21.592 12.500,21.592 C12.814,21.592 13.069,21.338 13.069,21.024 C13.069,20.710 12.814,20.456 12.500,20.456 ZM16.477,5.611 C16.749,5.768 17.096,5.674 17.253,5.403 C17.410,5.131 17.317,4.783 17.045,4.626 C16.773,4.470 16.426,4.562 16.269,4.834 C16.112,5.106 16.205,5.454 16.477,5.611 ZM7.956,4.626 C7.684,4.783 7.591,5.131 7.748,5.403 C7.905,5.674 8.253,5.768 8.524,5.611 C8.796,5.454 8.889,5.106 8.732,4.834 C8.575,4.562 8.228,4.470 7.956,4.626 Z" class="cls-1"/>
</svg>
