<svg xmlns="http://www.w3.org/2000/svg" xmlns:xlink="http://www.w3.org/1999/xlink" preserveAspectRatio="xMidYMid" width="25" height="25" viewBox="0 0 25 25">
  <defs>
    <style>
      .cls-1 {
        fill: #00abf8;
        fill-rule: evenodd;
      }
    </style>
  </defs>
  <path d="M12.500,25.000 C5.607,25.000 -0.000,19.393 -0.000,12.500 C-0.000,5.607 5.607,-0.000 12.500,-0.000 C19.392,-0.000 25.000,5.607 25.000,12.500 C25.000,19.393 19.392,25.000 12.500,25.000 ZM12.500,0.735 C6.013,0.735 0.735,6.013 0.735,12.500 C0.735,18.987 6.013,24.265 12.500,24.265 C18.987,24.265 24.265,18.987 24.265,12.500 C24.265,6.013 18.987,0.735 12.500,0.735 ZM22.707,12.698 C22.560,12.752 22.395,12.707 22.296,12.587 C20.105,9.930 16.443,8.343 12.500,8.343 C8.557,8.343 4.895,9.930 2.703,12.587 C2.632,12.673 2.527,12.720 2.420,12.720 C2.377,12.720 2.334,12.713 2.293,12.698 C2.146,12.644 2.050,12.504 2.052,12.348 C2.091,9.589 3.196,7.001 5.161,5.062 C7.129,3.120 9.735,2.051 12.500,2.051 C15.264,2.051 17.871,3.120 19.838,5.062 C21.804,7.001 22.908,9.589 22.948,12.348 C22.950,12.503 22.853,12.644 22.707,12.698 ZM19.322,5.585 C17.493,3.780 15.070,2.786 12.500,2.786 C9.930,2.786 7.507,3.780 5.678,5.585 C4.097,7.145 3.115,9.156 2.855,11.330 C5.219,8.984 8.743,7.608 12.500,7.608 C16.257,7.608 19.780,8.984 22.144,11.330 C21.884,9.156 20.903,7.145 19.322,5.585 ZM2.668,14.771 C2.669,14.771 2.669,14.771 2.669,14.771 L2.669,14.771 C5.153,14.108 7.823,14.824 9.639,16.640 C11.201,18.203 11.954,20.359 11.705,22.557 C11.705,22.558 11.705,22.558 11.705,22.558 L11.705,22.558 C11.684,22.745 11.525,22.884 11.340,22.884 C11.326,22.884 11.312,22.883 11.298,22.881 C9.204,22.641 7.253,21.781 5.656,20.395 C4.073,19.022 2.950,17.233 2.409,15.222 C2.356,15.026 2.472,14.824 2.668,14.771 ZM6.137,19.840 C7.526,21.045 9.203,21.822 11.006,22.100 C11.110,20.257 10.433,18.474 9.118,17.160 C7.577,15.618 5.349,14.960 3.225,15.396 C3.761,17.117 4.762,18.647 6.137,19.840 ZM9.334,12.500 C9.334,10.754 10.754,9.334 12.500,9.334 C14.246,9.334 15.666,10.754 15.666,12.500 C15.666,14.246 14.246,15.666 12.500,15.666 C10.754,15.666 9.334,14.246 9.334,12.500 ZM12.500,14.931 C13.840,14.931 14.931,13.840 14.931,12.500 C14.931,11.159 13.840,10.069 12.500,10.069 C11.159,10.069 10.069,11.159 10.069,12.500 C10.069,13.840 11.159,14.931 12.500,14.931 ZM22.330,14.771 C22.330,14.771 22.331,14.771 22.331,14.771 C22.527,14.824 22.643,15.026 22.591,15.222 C22.049,17.233 20.927,19.022 19.344,20.395 C17.747,21.781 15.796,22.641 13.702,22.881 C13.687,22.883 13.673,22.884 13.659,22.884 C13.475,22.884 13.316,22.745 13.294,22.558 L13.294,22.558 C13.294,22.557 13.294,22.557 13.294,22.557 C13.045,20.359 13.799,18.202 15.361,16.640 C17.177,14.824 19.847,14.108 22.330,14.771 ZM18.862,19.840 C20.237,18.647 21.238,17.117 21.774,15.396 C19.650,14.960 17.423,15.618 15.881,17.160 C14.567,18.474 13.890,20.257 13.993,22.100 C15.797,21.822 17.473,21.045 18.862,19.840 Z" class="cls-1"/>
</svg>
