<svg xmlns="http://www.w3.org/2000/svg" xmlns:xlink="http://www.w3.org/1999/xlink" preserveAspectRatio="xMidYMid" width="24" height="24" viewBox="0 0 24 24">
  <defs>
    <style>
      .cls-1 {
        fill: #757575;
        fill-rule: evenodd;
      }
    </style>
  </defs>
  <path d="M23.411,20.575 L18.198,15.362 C18.170,15.334 18.138,15.315 18.109,15.289 C19.134,13.733 19.733,11.870 19.733,9.867 C19.733,4.417 15.316,0.000 9.866,0.000 C4.417,0.000 -0.000,4.417 -0.000,9.867 C-0.000,15.316 4.417,19.733 9.866,19.733 C11.870,19.733 13.732,19.134 15.289,18.109 C15.314,18.138 15.333,18.170 15.362,18.198 L20.575,23.411 C21.358,24.195 22.628,24.195 23.411,23.411 C24.194,22.628 24.194,21.358 23.411,20.575 L23.411,20.575 ZM9.866,16.313 C6.306,16.313 3.420,13.427 3.420,9.867 C3.420,6.306 6.306,3.420 9.866,3.420 C13.427,3.420 16.313,6.306 16.313,9.867 C16.313,13.427 13.427,16.313 9.866,16.313 L9.866,16.313 Z" class="cls-1"/>
</svg>
