<svg xmlns="http://www.w3.org/2000/svg" xmlns:xlink="http://www.w3.org/1999/xlink" preserveAspectRatio="xMidYMid" width="49.969" height="17" viewBox="0 0 49.969 17">
  <defs>
    <style>
      .cls-1 {
        fill: #00abf8;
        fill-rule: evenodd;
      }
    </style>
  </defs>
  <path d="M49.501,13.250 L46.459,13.646 L46.237,14.084 C46.164,14.228 46.029,14.333 45.872,14.367 L42.862,15.003 L42.862,10.838 C42.862,9.579 41.839,8.559 40.575,8.559 L37.008,8.559 C35.571,8.559 34.403,9.723 34.403,11.158 L34.403,14.345 L34.089,14.314 L12.273,14.646 L12.212,14.649 L12.212,10.838 C12.212,9.579 11.189,8.559 9.928,8.559 L6.361,8.559 C4.920,8.559 3.753,9.726 3.753,11.158 L3.753,14.854 L2.411,14.886 C2.129,14.893 1.869,14.739 1.736,14.492 L1.533,14.106 C1.533,14.106 1.017,13.945 0.696,13.607 C0.377,13.268 -0.188,11.703 0.028,10.234 C0.244,8.765 0.836,7.491 1.491,6.846 C2.786,5.568 11.144,5.233 11.144,5.233 L19.493,0.319 C19.842,0.114 20.237,0.006 20.641,0.006 L48.191,0.006 C48.404,0.006 48.578,0.180 48.578,0.392 L48.578,0.837 C48.578,1.053 48.404,1.226 48.191,1.226 L47.737,1.226 C48.559,4.084 49.295,5.025 49.172,9.691 L49.515,9.745 C49.775,9.787 49.967,10.009 49.967,10.271 L49.967,12.720 C49.967,12.989 49.768,13.216 49.501,13.250 ZM23.353,1.329 C23.286,1.263 23.196,1.224 23.100,1.224 L20.273,1.224 C20.021,1.224 19.776,1.292 19.562,1.424 L16.221,3.475 C16.221,3.475 16.662,3.622 16.883,3.839 C17.124,4.076 17.244,4.780 17.028,5.079 C16.815,5.374 16.407,5.584 16.407,5.584 L23.051,5.584 C23.152,5.584 23.245,5.543 23.311,5.472 C23.377,5.401 23.412,5.306 23.404,5.208 L23.453,1.581 C23.456,1.486 23.419,1.395 23.353,1.329 ZM31.677,1.544 C31.660,1.363 31.508,1.224 31.326,1.224 L25.424,1.224 C25.227,1.224 25.070,1.382 25.070,1.576 L25.070,5.379 C25.070,5.472 25.109,5.565 25.178,5.631 C25.245,5.697 25.337,5.731 25.433,5.731 L30.749,5.616 C31.103,5.606 31.434,5.448 31.658,5.179 C31.881,4.910 31.974,4.556 31.915,4.211 L31.677,1.544 ZM46.245,1.468 C46.196,1.324 46.061,1.224 45.909,1.224 L34.479,1.224 C34.363,1.224 34.255,1.282 34.189,1.375 C34.123,1.471 34.108,1.591 34.150,1.700 L35.281,4.720 C35.533,5.113 35.968,5.350 36.437,5.347 L47.241,5.267 C47.303,5.265 47.359,5.233 47.391,5.181 C47.420,5.130 47.423,5.064 47.393,5.010 L46.245,1.468 ZM7.982,9.310 C10.112,9.310 11.839,11.029 11.839,13.153 C11.839,13.263 11.832,13.370 11.822,13.480 C11.655,15.448 10.001,16.993 7.980,16.993 C6.017,16.993 4.400,15.529 4.160,13.634 C4.140,13.475 4.126,13.316 4.126,13.153 C4.126,11.029 5.853,9.310 7.982,9.310 ZM9.913,11.706 L9.128,12.488 C9.189,12.593 9.236,12.708 9.265,12.828 L10.377,12.828 C10.318,12.407 10.158,12.028 9.913,11.706 ZM10.375,13.492 L9.265,13.492 C9.236,13.610 9.184,13.722 9.123,13.825 L9.913,14.612 C10.158,14.294 10.315,13.908 10.375,13.492 ZM8.316,15.539 C8.733,15.482 9.113,15.318 9.435,15.076 L8.652,14.294 C8.547,14.355 8.434,14.399 8.316,14.431 L8.316,15.539 ZM8.657,12.016 L9.442,11.234 C9.121,10.987 8.738,10.825 8.316,10.769 L8.314,11.877 C8.436,11.906 8.551,11.955 8.657,12.016 ZM7.646,10.769 C7.227,10.825 6.844,10.989 6.523,11.234 L7.308,12.016 C7.413,11.955 7.529,11.906 7.649,11.874 L7.646,10.769 ZM7.649,15.539 L7.649,14.431 C7.531,14.399 7.416,14.355 7.315,14.296 L6.530,15.076 C6.851,15.318 7.232,15.482 7.649,15.539 ZM6.054,14.609 L6.844,13.825 C6.780,13.722 6.734,13.610 6.702,13.492 L5.586,13.492 C5.645,13.908 5.811,14.289 6.054,14.609 ZM5.591,12.828 L6.699,12.828 C6.726,12.708 6.778,12.593 6.839,12.488 L6.052,11.706 C5.806,12.026 5.646,12.407 5.591,12.828 ZM38.630,9.310 C40.762,9.310 42.487,11.029 42.487,13.153 C42.487,13.263 42.479,13.370 42.469,13.480 C42.303,15.448 40.649,16.993 38.630,16.993 C36.665,16.993 35.048,15.529 34.807,13.634 C34.788,13.475 34.773,13.316 34.773,13.153 C34.773,11.029 36.503,9.310 38.630,9.310 ZM40.563,11.706 L39.778,12.488 C39.837,12.593 39.886,12.708 39.915,12.828 L41.025,12.828 C40.968,12.407 40.806,12.028 40.563,11.706 ZM41.022,13.492 L39.915,13.492 C39.883,13.610 39.832,13.722 39.770,13.825 L40.560,14.612 C40.806,14.294 40.963,13.908 41.022,13.492 ZM38.963,15.539 C39.383,15.482 39.761,15.318 40.082,15.076 L39.299,14.294 C39.196,14.355 39.081,14.399 38.963,14.431 L38.963,15.539 ZM38.963,11.877 C39.086,11.906 39.201,11.955 39.304,12.016 L40.092,11.234 C39.768,10.987 39.385,10.825 38.963,10.769 L38.963,11.877 ZM38.294,10.769 C37.874,10.825 37.492,10.989 37.170,11.234 L37.955,12.016 C38.061,11.955 38.176,11.906 38.296,11.874 L38.294,10.769 ZM38.296,15.539 L38.296,14.431 C38.178,14.399 38.063,14.355 37.963,14.296 L37.178,15.076 C37.499,15.318 37.879,15.482 38.296,15.539 ZM36.702,14.609 L37.492,13.825 C37.428,13.722 37.384,13.610 37.352,13.492 L36.233,13.492 C36.292,13.908 36.459,14.289 36.702,14.609 ZM36.237,12.828 L37.347,12.828 C37.376,12.708 37.425,12.593 37.487,12.488 L36.699,11.706 C36.456,12.026 36.294,12.407 36.237,12.828 Z" class="cls-1"/>
</svg>
