<svg xmlns="http://www.w3.org/2000/svg" xmlns:xlink="http://www.w3.org/1999/xlink" preserveAspectRatio="xMidYMid" width="51" height="13.969" viewBox="0 0 51 13.969">
  <defs>
    <style>
      .cls-1 {
        fill: #00abf8;
        fill-rule: evenodd;
      }
    </style>
  </defs>
  <path d="M50.073,10.245 L49.030,10.762 C48.814,11.137 48.420,11.380 47.981,11.409 L47.615,11.432 C47.773,11.030 47.876,10.598 47.911,10.148 C47.921,10.019 47.926,9.890 47.926,9.761 C47.904,7.283 45.847,5.266 43.300,5.266 C40.774,5.291 38.741,7.345 38.763,9.845 C38.766,10.024 38.779,10.208 38.809,10.417 C38.887,10.975 39.064,11.499 39.325,11.971 L38.726,12.011 L15.892,12.264 C16.239,11.683 16.462,11.022 16.517,10.312 C16.527,10.186 16.533,10.057 16.533,9.925 C16.507,7.449 14.453,5.433 11.906,5.433 C9.381,5.458 7.347,7.511 7.370,10.012 C7.372,10.190 7.385,10.372 7.415,10.581 C7.503,11.226 7.731,11.822 8.062,12.351 L7.729,12.353 L0.374,11.986 C0.278,11.981 0.191,11.934 0.136,11.859 C0.081,11.782 0.060,11.688 0.083,11.598 L0.381,10.417 L-0.010,9.513 C4.361,5.269 11.507,4.070 11.507,4.070 C11.507,4.070 16.274,2.265 19.363,1.268 C29.920,-2.138 46.211,2.170 49.566,2.855 C49.872,2.917 50.075,3.208 50.020,3.516 L49.724,5.184 L50.265,5.435 C50.508,5.550 50.641,5.815 50.586,6.076 L50.290,7.444 L50.709,7.576 C50.815,7.608 50.900,7.685 50.948,7.782 C50.993,7.881 50.998,7.993 50.955,8.095 L50.073,10.245 ZM16.835,2.903 C15.740,3.295 14.950,3.625 14.478,3.838 C14.388,3.879 14.333,3.970 14.338,4.065 C14.343,4.164 14.408,4.246 14.501,4.278 C15.098,4.472 16.066,4.760 16.835,4.866 L16.835,2.903 ZM29.644,0.998 C26.738,0.832 23.595,0.951 21.324,1.537 C19.744,1.944 18.413,2.356 17.335,2.726 L17.335,4.909 C17.979,4.936 18.591,4.904 18.591,4.904 C18.591,4.904 17.495,4.397 17.593,4.090 C17.791,3.459 19.419,3.245 20.263,3.173 C20.564,3.148 20.853,3.310 20.983,3.580 C21.061,3.739 21.083,3.918 21.051,4.090 L20.943,4.651 C20.943,4.651 25.471,4.472 30.537,3.722 L29.644,0.998 ZM31.297,1.125 L32.069,3.479 C33.746,3.196 35.441,2.846 37.011,2.416 C36.143,1.862 33.924,1.380 31.297,1.125 ZM7.904,10.004 C7.881,7.792 9.677,5.981 11.913,5.959 C14.148,5.937 15.978,7.715 15.998,9.930 C16.000,10.044 15.993,10.158 15.986,10.272 C15.828,12.326 14.110,13.955 11.988,13.975 C9.927,13.995 8.213,12.483 7.944,10.508 C7.921,10.342 7.904,10.176 7.904,10.004 ZM13.965,8.438 L13.147,9.264 C13.212,9.373 13.263,9.490 13.295,9.614 L14.461,9.605 C14.396,9.167 14.223,8.770 13.965,8.438 ZM14.464,10.297 L13.302,10.307 C13.270,10.434 13.217,10.548 13.155,10.657 L13.992,11.472 C14.245,11.137 14.408,10.734 14.464,10.297 ZM12.325,12.455 C12.763,12.390 13.162,12.217 13.496,11.964 L12.663,11.154 C12.555,11.219 12.440,11.266 12.314,11.298 L12.325,12.455 ZM12.289,8.631 C12.417,8.663 12.538,8.713 12.648,8.775 L13.465,7.953 C13.125,7.700 12.721,7.536 12.277,7.479 L12.289,8.631 ZM11.578,7.484 C11.136,7.548 10.735,7.723 10.399,7.981 L11.232,8.790 C11.342,8.723 11.459,8.671 11.587,8.639 L11.578,7.484 ZM11.625,12.460 L11.612,11.305 C11.490,11.273 11.370,11.228 11.262,11.167 L10.446,11.990 C10.785,12.239 11.186,12.406 11.625,12.460 ZM9.940,11.509 L10.760,10.682 C10.695,10.575 10.645,10.458 10.610,10.335 L9.439,10.345 C9.503,10.779 9.682,11.176 9.940,11.509 ZM10.599,9.639 C10.629,9.515 10.679,9.398 10.742,9.287 L9.910,8.477 C9.657,8.815 9.491,9.214 9.436,9.652 L10.599,9.639 ZM43.305,5.795 C45.541,5.775 47.371,7.551 47.392,9.764 C47.392,9.880 47.387,9.994 47.377,10.106 C47.221,12.162 45.501,13.791 43.383,13.811 C41.319,13.831 39.606,12.318 39.338,10.345 C39.313,10.178 39.297,10.012 39.297,9.841 C39.275,7.628 41.070,5.818 43.305,5.795 ZM45.358,8.274 L44.541,9.101 C44.606,9.207 44.656,9.324 44.689,9.450 L45.855,9.441 C45.790,9.001 45.616,8.606 45.358,8.274 ZM45.857,10.131 L44.694,10.143 C44.664,10.270 44.611,10.384 44.548,10.491 L45.386,11.305 C45.639,10.970 45.802,10.568 45.857,10.131 ZM43.718,12.289 C44.157,12.227 44.553,12.050 44.887,11.797 L44.057,10.987 C43.949,11.052 43.831,11.102 43.706,11.134 L43.718,12.289 ZM43.683,8.465 C43.811,8.497 43.931,8.547 44.042,8.611 L44.857,7.787 C44.516,7.536 44.112,7.370 43.671,7.312 L43.683,8.465 ZM42.969,7.320 C42.530,7.384 42.129,7.556 41.793,7.817 L42.625,8.624 C42.736,8.559 42.853,8.507 42.981,8.472 L42.969,7.320 ZM43.019,12.296 L43.006,11.139 C42.883,11.109 42.763,11.064 42.653,11.003 L41.837,11.825 C42.179,12.072 42.580,12.239 43.019,12.296 ZM41.334,11.345 L42.154,10.518 C42.086,10.409 42.036,10.293 42.003,10.168 L40.832,10.181 C40.898,10.615 41.076,11.012 41.334,11.345 ZM41.993,9.475 C42.023,9.349 42.074,9.232 42.136,9.123 L41.301,8.310 C41.050,8.649 40.885,9.049 40.830,9.485 L41.993,9.475 Z" class="cls-1"/>
</svg>
