<svg xmlns="http://www.w3.org/2000/svg" xmlns:xlink="http://www.w3.org/1999/xlink" preserveAspectRatio="xMidYMid" width="50" height="18" viewBox="0 0 50 18">
  <defs>
    <style>
      .cls-1 {
        fill: #00abf8;
        fill-rule: evenodd;
      }
    </style>
  </defs>
  <path d="M48.526,13.469 L44.682,14.201 L44.586,14.208 C44.586,14.201 44.586,14.190 44.586,14.181 C44.586,11.654 42.553,9.601 40.054,9.601 C37.555,9.601 35.524,11.656 35.524,14.181 C35.524,14.363 35.536,14.550 35.564,14.757 C35.571,14.817 35.584,14.874 35.593,14.934 L13.102,15.390 L13.089,15.390 C13.164,15.126 13.215,14.849 13.237,14.567 C13.247,14.440 13.257,14.310 13.257,14.181 C13.257,11.654 11.224,9.601 8.725,9.601 C6.226,9.601 4.194,11.656 4.194,14.181 C4.194,14.360 4.205,14.550 4.233,14.757 C4.245,14.854 4.265,14.947 4.282,15.041 C2.738,14.864 1.401,14.597 0.707,14.201 C0.026,13.080 -0.065,11.471 0.026,11.135 C0.116,10.798 0.268,10.157 0.757,8.832 C1.245,7.507 10.412,5.574 11.338,5.554 C14.483,4.209 19.829,1.625 21.018,1.208 C28.044,-1.254 35.379,0.762 37.007,1.139 C38.633,1.517 43.330,3.528 44.546,3.908 C45.393,4.172 47.280,4.489 48.346,4.658 C48.790,4.728 49.115,5.112 49.115,5.566 L49.115,8.390 C49.115,8.390 49.998,9.039 49.998,10.493 C49.998,12.676 48.526,13.469 48.526,13.469 ZM17.814,4.414 C17.814,4.414 18.559,4.701 18.404,5.973 L26.803,5.714 L27.881,1.246 C27.881,1.246 21.151,1.351 17.814,4.414 ZM29.271,1.246 L28.577,5.584 L36.230,5.324 L36.615,3.922 L35.485,2.076 C35.485,2.076 33.225,1.196 29.271,1.246 ZM39.923,4.018 C39.161,3.616 37.880,2.982 36.282,2.339 L38.413,5.297 L40.545,5.297 C40.639,4.778 40.387,4.259 39.923,4.018 ZM8.725,10.366 C10.810,10.366 12.497,12.073 12.497,14.181 C12.497,14.290 12.490,14.397 12.483,14.505 C12.317,16.461 10.699,17.995 8.725,17.995 C6.801,17.995 5.220,16.541 4.985,14.660 C4.965,14.503 4.951,14.343 4.951,14.181 C4.951,12.073 6.641,10.366 8.725,10.366 ZM10.615,12.744 L9.845,13.522 C9.905,13.625 9.951,13.736 9.983,13.856 L11.066,13.856 C11.010,13.442 10.854,13.063 10.615,12.744 ZM11.066,14.517 L9.981,14.517 C9.951,14.635 9.902,14.744 9.840,14.847 L10.615,15.630 C10.854,15.313 11.007,14.929 11.066,14.517 ZM9.051,16.551 C9.460,16.493 9.833,16.331 10.146,16.092 L9.379,15.316 C9.278,15.376 9.169,15.418 9.051,15.450 L9.051,16.551 ZM9.053,12.911 C9.171,12.943 9.283,12.990 9.386,13.050 L10.153,12.275 C9.838,12.032 9.463,11.870 9.051,11.813 L9.053,12.911 ZM8.400,11.813 C7.987,11.873 7.613,12.032 7.297,12.275 L8.064,13.053 C8.168,12.990 8.278,12.943 8.400,12.911 L8.400,11.813 ZM8.400,16.551 L8.400,15.450 C8.283,15.418 8.172,15.376 8.071,15.316 L7.304,16.092 C7.617,16.331 7.990,16.493 8.400,16.551 ZM6.838,15.627 L7.610,14.847 C7.548,14.747 7.504,14.635 7.472,14.517 L6.379,14.517 C6.438,14.931 6.598,15.311 6.838,15.627 ZM6.384,13.856 L7.469,13.856 C7.499,13.736 7.546,13.625 7.605,13.522 L6.835,12.744 C6.596,13.063 6.441,13.442 6.384,13.856 ZM40.054,10.366 C42.139,10.366 43.828,12.073 43.828,14.181 C43.828,14.290 43.821,14.397 43.811,14.505 C43.646,16.461 42.028,17.995 40.054,17.995 C38.132,17.995 36.548,16.541 36.314,14.660 C36.294,14.503 36.282,14.343 36.282,14.181 C36.282,12.073 37.972,10.366 40.054,10.366 ZM41.946,12.744 L41.176,13.522 C41.236,13.625 41.282,13.736 41.312,13.856 L42.398,13.856 C42.341,13.442 42.183,13.063 41.946,12.744 ZM42.395,14.517 L41.310,14.517 C41.280,14.635 41.231,14.744 41.171,14.849 L41.944,15.630 C42.183,15.313 42.338,14.929 42.395,14.517 ZM40.382,16.551 C40.789,16.493 41.162,16.331 41.477,16.092 L40.710,15.316 C40.609,15.376 40.498,15.418 40.382,15.450 L40.382,16.551 ZM40.382,12.911 C40.500,12.941 40.612,12.990 40.715,13.050 L41.484,12.275 C41.169,12.032 40.794,11.870 40.382,11.813 L40.382,12.911 ZM39.728,11.813 C39.316,11.873 38.941,12.032 38.625,12.275 L39.395,13.053 C39.499,12.990 39.610,12.943 39.728,12.911 L39.728,11.813 ZM39.728,16.551 L39.728,15.450 C39.613,15.418 39.501,15.376 39.400,15.316 L38.633,16.092 C38.949,16.331 39.319,16.493 39.728,16.551 ZM38.169,15.627 L38.939,14.847 C38.879,14.747 38.832,14.635 38.803,14.517 L37.710,14.517 C37.767,14.931 37.929,15.311 38.169,15.627 ZM37.713,13.856 L38.798,13.856 C38.827,13.736 38.875,13.625 38.934,13.522 L38.167,12.744 C37.927,13.063 37.770,13.442 37.713,13.856 Z" class="cls-1"/>
</svg>
