<svg xmlns="http://www.w3.org/2000/svg" xmlns:xlink="http://www.w3.org/1999/xlink" preserveAspectRatio="xMidYMid" width="50" height="19.969" viewBox="0 0 50 19.969">
  <defs>
    <style>
      .cls-1 {
        fill: #00abf8;
        fill-rule: evenodd;
      }
    </style>
  </defs>
  <path d="M48.580,16.269 L46.515,16.698 C46.525,16.618 46.540,16.538 46.547,16.455 C46.557,16.332 46.564,16.207 46.564,16.079 C46.564,13.632 44.614,11.643 42.220,11.643 C39.823,11.643 37.876,13.632 37.876,16.079 C37.876,16.269 37.888,16.455 37.912,16.635 C37.930,16.779 37.954,16.917 37.984,17.055 L14.060,17.716 L13.637,17.694 C13.787,17.303 13.886,16.889 13.922,16.455 C13.932,16.332 13.941,16.207 13.941,16.079 C13.941,13.632 11.992,11.643 9.595,11.643 C7.198,11.643 5.251,13.632 5.251,16.079 C5.251,16.269 5.266,16.455 5.288,16.635 C5.315,16.847 5.359,17.052 5.413,17.252 L1.812,16.676 C1.064,16.558 0.457,15.993 0.268,15.246 C0.096,14.562 -0.059,13.747 0.005,13.211 C0.131,12.168 0.813,11.759 0.813,11.759 C2.395,7.894 10.692,6.583 10.692,6.583 C10.692,6.583 18.235,1.521 21.221,0.700 C25.639,-0.513 39.673,0.083 44.248,0.319 C45.155,0.364 45.975,0.881 46.424,1.686 L49.155,6.605 C49.567,7.353 49.799,8.190 49.828,9.048 L50.002,14.426 C50.034,15.314 49.430,16.092 48.580,16.269 ZM15.366,5.422 C14.696,5.883 14.097,6.320 13.605,6.685 C13.423,6.823 13.347,7.067 13.426,7.285 C13.502,7.503 13.708,7.644 13.937,7.631 L14.769,7.584 C14.769,7.584 14.959,7.202 15.366,6.851 L15.366,5.422 ZM25.818,1.289 C24.108,1.383 22.734,1.543 21.977,1.791 C20.319,2.340 18.392,3.433 16.692,4.534 L16.692,6.292 C16.742,6.287 16.786,6.275 16.837,6.272 C18.318,6.214 18.571,7.584 18.571,7.584 L25.818,7.280 L25.818,1.289 ZM36.058,1.227 C33.455,1.167 30.638,1.142 28.173,1.200 L28.173,7.182 L36.608,6.831 L36.058,1.227 ZM46.171,4.271 L45.135,2.268 C44.911,1.831 44.477,1.546 43.993,1.521 C42.952,1.463 40.893,1.367 38.428,1.292 L38.963,6.731 L44.924,6.483 C45.429,6.463 45.891,6.177 46.144,5.728 C46.397,5.279 46.407,4.730 46.171,4.271 ZM9.595,12.197 C11.697,12.197 13.399,13.935 13.399,16.079 C13.399,16.192 13.391,16.302 13.382,16.410 C13.217,18.401 11.586,19.963 9.595,19.963 C7.657,19.963 6.061,18.481 5.825,16.568 C5.806,16.407 5.793,16.244 5.793,16.079 C5.793,13.935 7.496,12.197 9.595,12.197 ZM11.501,14.617 L10.724,15.409 C10.786,15.515 10.833,15.628 10.862,15.751 L11.955,15.751 C11.898,15.326 11.741,14.941 11.501,14.617 ZM11.955,16.422 L10.862,16.422 C10.830,16.543 10.781,16.653 10.720,16.759 L11.501,17.553 C11.741,17.232 11.896,16.844 11.955,16.422 ZM9.924,18.491 C10.337,18.433 10.713,18.268 11.029,18.025 L10.255,17.232 C10.152,17.295 10.042,17.340 9.924,17.370 L9.924,18.491 ZM9.924,14.788 C10.044,14.817 10.157,14.868 10.260,14.930 L11.036,14.141 C10.717,13.892 10.339,13.729 9.924,13.672 L9.924,14.788 ZM9.266,13.672 C8.851,13.729 8.473,13.892 8.156,14.138 L8.930,14.930 C9.035,14.868 9.145,14.820 9.266,14.788 L9.266,13.672 ZM9.266,18.491 L9.266,17.373 C9.150,17.340 9.038,17.295 8.937,17.235 L8.163,18.025 C8.480,18.268 8.856,18.433 9.266,18.491 ZM7.692,17.553 L8.470,16.759 C8.409,16.656 8.364,16.540 8.333,16.422 L7.233,16.422 C7.289,16.844 7.453,17.230 7.692,17.553 ZM7.235,15.751 L8.328,15.751 C8.359,15.628 8.407,15.515 8.465,15.409 L7.689,14.617 C7.451,14.941 7.291,15.326 7.235,15.751 ZM42.220,12.197 C44.320,12.197 46.024,13.935 46.022,16.079 C46.022,16.192 46.014,16.302 46.006,16.410 C45.840,18.401 44.209,19.963 42.220,19.963 C40.282,19.963 38.686,18.481 38.450,16.568 C38.431,16.407 38.418,16.244 38.418,16.079 C38.418,13.935 40.120,12.197 42.220,12.197 ZM44.125,14.617 L43.350,15.409 C43.411,15.515 43.455,15.628 43.487,15.751 L44.580,15.751 C44.523,15.326 44.366,14.941 44.125,14.617 ZM44.580,16.422 L43.487,16.422 C43.455,16.543 43.406,16.653 43.345,16.759 L44.125,17.553 C44.366,17.232 44.521,16.844 44.580,16.422 ZM42.549,18.491 C42.962,18.433 43.335,18.268 43.651,18.025 L42.878,17.232 C42.778,17.295 42.664,17.340 42.549,17.370 L42.549,18.491 ZM42.549,14.788 C42.669,14.817 42.782,14.868 42.885,14.930 L43.661,14.141 C43.342,13.892 42.964,13.729 42.549,13.672 L42.549,14.788 ZM41.890,13.672 C41.476,13.729 41.098,13.892 40.778,14.138 L41.554,14.930 C41.657,14.868 41.770,14.820 41.890,14.788 L41.890,13.672 ZM41.890,18.491 L41.890,17.373 C41.775,17.340 41.662,17.295 41.562,17.235 L40.788,18.025 C41.105,18.268 41.478,18.433 41.890,18.491 ZM40.317,17.553 L41.095,16.759 C41.034,16.656 40.990,16.540 40.958,16.422 L39.855,16.422 C39.914,16.844 40.079,17.230 40.317,17.553 ZM39.860,15.751 L40.953,15.751 C40.982,15.628 41.031,15.515 41.090,15.409 L40.314,14.617 C40.076,14.941 39.916,15.326 39.860,15.751 Z" class="cls-1"/>
</svg>
