<svg xmlns="http://www.w3.org/2000/svg" xmlns:xlink="http://www.w3.org/1999/xlink" preserveAspectRatio="xMidYMid" width="50" height="22" viewBox="0 0 50 22">
  <defs>
    <style>
      .cls-1 {
        fill: #1e1e1e;
        fill-rule: evenodd;
      }
    </style>
  </defs>
  <path d="M-0.000,10.732 L-0.000,16.311 C-0.000,17.274 0.757,18.055 1.692,18.055 L6.219,18.055 C7.067,20.358 9.230,22.000 11.758,22.000 C14.287,22.000 16.450,20.358 17.298,18.055 L33.606,18.055 C34.453,20.358 36.616,22.000 39.145,22.000 C41.674,22.000 43.836,20.358 44.684,18.055 L46.460,18.055 C48.574,18.055 49.607,17.114 49.867,16.231 C50.523,13.996 48.543,9.970 48.513,9.931 C48.240,9.581 47.848,9.354 47.416,9.295 L36.961,7.342 C36.961,7.342 31.062,1.533 27.563,1.533 L25.464,1.534 L24.930,0.524 C24.759,0.201 24.430,0.000 24.074,0.000 L19.434,0.000 C19.077,0.000 18.748,0.201 18.577,0.524 L18.041,1.537 L15.774,1.537 C13.488,1.537 11.578,3.331 9.366,5.409 C8.324,6.388 7.174,7.466 5.904,8.424 L1.177,9.072 C0.495,9.296 -0.000,9.954 -0.000,10.732 L-0.000,10.732 ZM36.889,15.897 C36.889,14.616 37.901,13.573 39.145,13.573 C40.389,13.573 41.401,14.616 41.401,15.897 C41.401,17.180 40.389,18.222 39.145,18.222 C37.901,18.222 36.889,17.180 36.889,15.897 L36.889,15.897 ZM26.317,12.371 L28.952,12.371 L28.952,9.657 L31.586,9.657 L31.586,12.371 L28.952,12.371 L28.952,15.085 L26.317,15.085 L26.317,12.371 ZM23.683,9.657 L26.317,9.657 L26.317,12.371 L23.683,12.371 L23.683,9.657 ZM18.414,9.657 L21.048,9.657 L21.048,12.371 L23.683,12.371 L23.683,15.085 L21.048,15.085 L21.048,12.371 L18.414,12.371 L18.414,9.657 ZM9.502,15.897 C9.502,14.616 10.514,13.573 11.758,13.573 C13.002,13.573 14.014,14.616 14.014,15.897 C14.014,17.180 13.002,18.222 11.758,18.222 C10.514,18.222 9.502,17.180 9.502,15.897 L9.502,15.897 Z" class="cls-1"/>
</svg>
