<svg xmlns="http://www.w3.org/2000/svg" xmlns:xlink="http://www.w3.org/1999/xlink" preserveAspectRatio="xMidYMid" width="15" height="15" viewBox="0 0 15 15">
  <defs>
    <style>
      .cls-1 {
        fill: #000;
        fill-rule: evenodd;
      }
    </style>
  </defs>
  <path d="M7.499,15.000 C3.364,15.000 0.000,11.635 0.000,7.499 C0.000,3.364 3.364,0.000 7.499,0.000 C11.635,0.000 15.000,3.364 15.000,7.499 C15.000,11.635 11.635,15.000 7.499,15.000 ZM7.499,0.613 C3.702,0.613 0.613,3.702 0.613,7.499 C0.613,11.297 3.702,14.387 7.499,14.387 C11.297,14.387 14.387,11.297 14.387,7.499 C14.387,3.702 11.297,0.613 7.499,0.613 ZM11.755,7.883 L7.891,7.883 L7.891,11.747 C7.891,11.917 7.753,12.054 7.584,12.054 C7.415,12.054 7.278,11.917 7.278,11.747 L7.278,7.883 L3.413,7.883 C3.244,7.883 3.107,7.746 3.107,7.576 C3.107,7.407 3.244,7.270 3.413,7.270 L7.278,7.270 L7.278,3.405 C7.278,3.236 7.415,3.099 7.584,3.099 C7.753,3.099 7.891,3.236 7.891,3.405 L7.891,7.270 L11.755,7.270 C11.924,7.270 12.061,7.407 12.061,7.576 C12.061,7.746 11.924,7.883 11.755,7.883 Z" class="cls-1"/>
</svg>
