<svg xmlns="http://www.w3.org/2000/svg" xmlns:xlink="http://www.w3.org/1999/xlink" preserveAspectRatio="xMidYMid" width="15" height="15" viewBox="0 0 15 15">
  <defs>
    <style>
      .cls-1 {
        fill: #000;
        fill-rule: evenodd;
      }
    </style>
  </defs>
  <path d="M7.496,14.996 C3.362,14.996 -0.001,11.633 -0.001,7.499 C-0.001,3.364 3.362,-0.001 7.496,-0.001 C11.631,-0.001 14.996,3.364 14.996,7.499 C14.996,11.633 11.631,14.996 7.496,14.996 ZM7.496,0.615 C3.702,0.615 0.615,3.703 0.615,7.499 C0.615,11.293 3.702,14.380 7.496,14.380 C11.292,14.380 14.380,11.293 14.380,7.499 C14.380,3.703 11.292,0.615 7.496,0.615 ZM11.689,7.942 L3.306,7.942 C3.136,7.942 2.998,7.805 2.998,7.635 C2.998,7.464 3.136,7.327 3.306,7.327 L11.689,7.327 C11.859,7.327 11.997,7.464 11.997,7.635 C11.997,7.805 11.859,7.942 11.689,7.942 Z" class="cls-1"/>
</svg>
