<svg xmlns="http://www.w3.org/2000/svg" xmlns:xlink="http://www.w3.org/1999/xlink" preserveAspectRatio="xMidYMid" width="15" height="14" viewBox="0 0 15 14">
  <defs>
    <style>
      .cls-1 {
        fill: #737678;
        fill-rule: evenodd;
      }
    </style>
  </defs>
  <path d="M14.970,5.297 C14.874,5.003 14.599,4.801 14.286,4.795 L9.698,4.704 L8.193,0.483 C8.090,0.193 7.811,-0.001 7.500,-0.001 C7.188,-0.001 6.910,0.193 6.807,0.483 L5.302,4.704 L0.714,4.795 C0.400,4.801 0.125,5.003 0.030,5.297 C-0.066,5.590 0.037,5.912 0.288,6.098 L3.938,8.796 L2.613,13.067 C2.521,13.361 2.628,13.682 2.881,13.863 C3.129,14.043 3.481,14.047 3.732,13.876 L7.500,11.319 L11.269,13.876 C11.392,13.959 11.536,14.004 11.685,14.004 C11.842,14.004 11.992,13.955 12.120,13.863 C12.372,13.681 12.479,13.361 12.388,13.067 L11.061,8.796 L14.712,6.098 C14.963,5.912 15.066,5.589 14.970,5.297 ZM7.378,0.680 C7.414,0.578 7.586,0.578 7.623,0.681 L9.197,5.096 C9.239,5.213 9.350,5.293 9.476,5.295 L14.273,5.391 C14.329,5.392 14.377,5.427 14.394,5.480 C14.411,5.532 14.393,5.588 14.348,5.621 L10.528,8.445 C10.426,8.520 10.383,8.651 10.421,8.771 L11.809,13.242 C11.826,13.294 11.807,13.351 11.763,13.382 C11.718,13.415 11.657,13.415 11.612,13.385 L7.672,10.712 C7.620,10.677 7.560,10.659 7.500,10.659 C7.440,10.659 7.380,10.677 7.329,10.712 " class="cls-1"/>
</svg>
